<svg width="54" height="43" viewBox="0 0 54 43" fill="none" xmlns="http://www.w3.org/2000/svg">
<path d="M26.4793 19.0309L44.5722 0.937907C45.8228 -0.312636 47.8449 -0.312636 49.0822 0.937907L52.0888 3.94453C53.3393 5.19508 53.3393 7.21723 52.0888 8.45447L39.2774 21.2925L52.1021 34.1172C53.3526 35.3678 53.3526 37.3899 52.1021 38.6272L49.0955 41.6471C47.8449 42.8976 45.8228 42.8976 44.5855 41.6471L26.4926 23.5541C25.2287 22.3036 25.2287 20.2814 26.4793 19.0309ZM0.936251 23.5541L19.0292 41.6471C20.2798 42.8976 22.3019 42.8976 23.5392 41.6471L26.5458 38.6405C27.7963 37.3899 27.7963 35.3678 26.5458 34.1305L13.7344 21.2925L26.5591 8.46778C27.8096 7.21723 27.8096 5.19508 26.5591 3.95784L23.5525 0.937907C22.3019 -0.312636 20.2798 -0.312636 19.0425 0.937907L0.949555 19.0309C-0.314292 20.2814 -0.314292 22.3036 0.936251 23.5541Z" fill="white"/>
</svg>
